# xmcd CD database file
#
# Track frame offsets:
#	150
#	6981
#	27612
#	49828
#	60699
#	79885
#	88609
#	111438
#	116981
#	135367
#	160622
#	202203
#
# Disc length: 2814 seconds
#
# Revision: 0
# Processed by: cddbd v1.5.1PL2 Copyright (c) Steve Scherf et al.
# Submitted via: CDex 1.51
#
DISCID=a90afc0c
DTITLE=Little Wing - かののね
DYEAR=2000
DGENRE=Game
TTITLE0=まにょっ - resurrection
TTITLE1=まにょっ - 日溜まりの町
TTITLE2=まにょっ - History　- 海鳴り -
TTITLE3=まにょっ - Interlude　-recurrence- (少女の檻)
TTITLE4=まにょっ - A Tair
TTITLE5=まにょっ - Interlude　-FOX PAW-
TTITLE6=まにょっ - on your mark
TTITLE7=まにょっ - Interlude -classmates- (冬の花火)
TTITLE8=まにょっ・たくまる - 虹をみた小径
TTITLE9=まにょっ - かののね (featuring"鳥の詩")
TTITLE10=@-K - So Long Goodbye
TTITLE11=DataTrack
EXTD=YEAR: 2000
EXTT0=
EXTT1=
EXTT2=
EXTT3=
EXTT4=
EXTT5=
EXTT6=
EXTT7=
EXTT8=
EXTT9=
EXTT10=
EXTT11=
PLAYORDER=
